<?xml version="1.0" encoding="UTF-8" standalone="no"?>
<!-- Created with Inkscape (http://www.inkscape.org/) -->

<svg
   version="1.1"
   id="svg1"
   width="3500"
   height="3500"
   viewBox="0 0 3500 3500"
   sodipodi:docname="g3.svg"
   inkscape:version="1.3.2 (091e20e, 2023-11-25)"
   inkscape:export-filename="g3.png"
   inkscape:export-xdpi="96"
   inkscape:export-ydpi="96"
   xmlns:inkscape="http://www.inkscape.org/namespaces/inkscape"
   xmlns:sodipodi="http://sodipodi.sourceforge.net/DTD/sodipodi-0.dtd"
   xmlns="http://www.w3.org/2000/svg"
   xmlns:svg="http://www.w3.org/2000/svg">
  <sodipodi:namedview
     id="namedview1"
     pagecolor="#ffffff"
     bordercolor="#000000"
     borderopacity="0.25"
     inkscape:showpageshadow="2"
     inkscape:pageopacity="0.0"
     inkscape:pagecheckerboard="0"
     inkscape:deskcolor="#d1d1d1"
     inkscape:zoom="0.18482125"
     inkscape:cx="1709.7601"
     inkscape:cy="844.05879"
     inkscape:window-width="1432"
     inkscape:window-height="733"
     inkscape:window-x="218"
     inkscape:window-y="214"
     inkscape:window-maximized="0"
     inkscape:current-layer="svg1" />
  <defs
     id="defs1" />
  <path
     style="fill:#b7b7b7;fill-opacity:1;stroke-width:6.22312"
     d="m 55.279566,1429.1789 c 2.411074,-7.1221 33.696971,-78.2997 69.524214,-158.1722 l 65.14044,-145.223 3.81475,-421.79244 c 2.77874,-307.2429 6.00051,-429.97457 11.86315,-451.92051 C 230.00971,160.77951 293.07949,83.214954 371.09118,48.573339 L 414.892,29.123293 1799.9278,27.445527 c 887.4311,-1.074992 1399.8209,0.456835 1426.1896,4.263691 87.5456,12.639201 157.0281,64.118736 199.8303,148.054242 13.5199,26.51267 27.7343,62.57382 31.5875,80.13589 4.6643,21.257 6.9744,170.31271 6.9111,445.89487 -0.1046,456.18808 0.048,454.18538 -40.2951,531.02238 -26.3537,50.1937 -79.9938,101.5511 -129.9275,124.3983 l -38.5625,17.6443 -1436.4522,3.1102 -1436.45241,3.1102 -159.8748,28.5243 c -87.93116,15.6883 -162.599841,28.5242 -165.930412,28.5242 -3.33057,0 -4.082887,-5.8271 -1.671812,-12.9492 z M 1345.0212,904.43629 c 47.1923,-20.32439 91.8008,-63.46219 116.9287,-113.07374 17.9864,-35.51186 19.8,-44.5077 19.4369,-96.40969 -0.3115,-44.54526 -3.6201,-64.9244 -14.9146,-91.87037 -20.2076,-48.20971 -68.2283,-95.7403 -121.6285,-120.38698 -38.3468,-17.69884 -48.3786,-19.70639 -97.5097,-19.5134 -42.7648,0.16796 -61.8071,3.20048 -86.9007,13.83908 -72.5024,30.73778 -112.0813,70.24471 -138.1728,137.92186 -12.0343,31.21506 -13.994,46.34228 -11.7087,90.38408 5.2751,101.66018 62.5088,174.71753 164.9478,210.55142 38.6484,13.51946 125.1127,7.68337 169.5216,-11.44226 z m 610.4764,-0.4675 c 92.1776,-42.28125 150.686,-148.88189 134.2454,-244.59162 -16.7805,-97.68927 -82.7079,-167.35627 -180.6298,-190.87563 -130.7269,-31.39867 -260.7122,49.94375 -289.2231,180.99058 -15.4035,70.80064 6.6268,145.3463 58.7579,198.82296 57.5596,59.04529 101.4265,76.43134 186.0701,73.74627 44.4661,-1.41053 62.0518,-4.91545 90.7795,-18.09256 z m 610.6734,-2.86034 c 49.4222,-22.81969 86.1776,-58.46147 112.4053,-108.99878 15.7018,-30.25539 17.6054,-40.66993 17.7581,-97.15681 0.152,-56.2246 -1.7471,-67.10502 -17.0541,-97.72369 -24.0526,-48.11203 -69.1848,-91.21002 -120.1472,-114.7315 -37.8,-17.44649 -48.16,-19.51675 -97.081,-19.40022 -45.6009,0.10863 -60.9153,2.81098 -91.5159,16.14895 -51.2225,22.32649 -97.2438,64.64651 -122.3758,112.53297 -19.5402,37.23249 -20.8212,43.62314 -20.661,103.06803 0.1524,56.36878 2.0863,67.06262 17.4947,96.73973 46.5364,89.63073 122.6711,133.52818 226.7156,130.71854 43.538,-1.1757 58.2495,-4.47696 94.4613,-21.19722 z"
     id="path4" />
  <path
     style="fill:#000000;fill-opacity:0;stroke-width:5.06904"
     d="M 1193.7583,917.26411 C 1129.2975,903.92687 1067.3698,856.4664 1038.6783,798.4131 979.30001,678.26925 1022.4138,549.65578 1141.9246,490.41748 l 43.4389,-21.53151 h 61.4626 c 60.6144,0 61.9848,0.25789 99.2996,18.68801 46.2319,22.83431 90.7243,65.33234 113.0086,107.9429 15.512,29.66095 15.9556,32.3415 15.9556,96.40674 0,62.97142 -0.6718,67.24797 -15.1294,96.31171 -18.6595,37.51075 -72.5208,92.83511 -105.0674,107.9215 -43.2204,20.03408 -118.5993,29.90806 -161.1348,21.10728 z"
     id="path1" />
  <rect
     style="fill:#ffffff;fill-opacity:0"
     id="rect1"
     width="937.77191"
     height="567.73218"
     x="800.9079"
     y="1515.6422"
     rx="19.716286"
     ry="24.007645" />
  <path
     style="fill:#ffffff;fill-opacity:0;stroke-width:5.06904"
     d="M 1193.7583,917.26411 C 1129.2975,903.92687 1067.3698,856.4664 1038.6783,798.4131 979.30001,678.26925 1022.4138,549.65578 1141.9246,490.41748 l 43.4389,-21.53151 h 61.4626 c 60.6144,0 61.9848,0.25789 99.2996,18.68801 46.2319,22.83431 90.7243,65.33234 113.0086,107.9429 15.512,29.66095 15.9556,32.3415 15.9556,96.40674 0,62.97142 -0.6718,67.24797 -15.1294,96.31171 -18.6595,37.51075 -72.5208,92.83511 -105.0674,107.9215 -43.2204,20.03408 -118.5993,29.90806 -161.1348,21.10728 z"
     id="path2" />
  <path
     style="fill:#ffffff;fill-opacity:0;stroke-width:5.06904"
     d="m 1784.3012,912.98229 c -43.526,-11.33848 -103.9443,-59.39802 -133.7963,-106.42784 -40.4167,-63.67381 -41.1824,-155.31809 -1.8656,-223.2953 64.4622,-111.45263 202.2461,-148.99406 322.7923,-87.94994 78.1907,39.59543 130.3531,143.76841 115.2022,230.06898 -12.518,71.30258 -66.667,144.02406 -129.9853,174.56875 -27.9547,13.48529 -35.5383,14.76578 -93.7772,15.83428 -34.8497,0.63938 -70.2062,-0.62013 -78.5701,-2.79893 z"
     id="path3" />
  <path
     style="fill:#000000;fill-opacity:0;stroke-width:5.06904"
     d="m 2393.1825,912.05926 c -58.0151,-14.21452 -115.7973,-63.60582 -145.8659,-124.68377 -15.8564,-32.20901 -16.5178,-35.98724 -16.6145,-94.91233 -0.099,-60.44982 0.1632,-61.86095 17.5285,-94.31596 23.8247,-44.52712 69.6545,-89.38453 113.9409,-111.5232 34.8728,-17.43288 36.5733,-17.73803 98.8462,-17.73803 61.7873,0 64.2453,0.43 98.8462,17.29214 42.9448,20.92835 95.8326,71.49385 117.1433,111.99936 13.9767,26.56574 14.6517,30.8844 14.6517,93.74615 0,62.17011 -0.8162,67.55978 -14.4307,95.28569 -22.1531,45.11484 -63.2879,86.2509 -108.7268,108.73007 -37.157,18.38202 -40.4215,19.05417 -97.045,19.98174 -32.227,0.52791 -67.4503,-1.20992 -78.2739,-3.86186 z"
     id="path5" />
  <path
     style="fill:#000000;fill-opacity:0;stroke-width:5.06904"
     d="M 1193.7583,917.26411 C 1129.2975,903.92687 1067.3698,856.4664 1038.6783,798.4131 979.30001,678.26925 1022.4138,549.65578 1141.9246,490.41748 l 43.4389,-21.53151 h 61.4626 c 60.6144,0 61.9848,0.25789 99.2996,18.68801 46.2319,22.83431 90.7243,65.33234 113.0086,107.9429 15.512,29.66095 15.9556,32.3415 15.9556,96.40674 0,62.97142 -0.6718,67.24797 -15.1294,96.31171 -18.6595,37.51075 -72.5208,92.83511 -105.0674,107.9215 -43.2204,20.03408 -118.5993,29.90806 -161.1348,21.10728 z"
     id="path6" />
  <path
     style="fill:#000000;fill-opacity:0;stroke-width:5.06904"
     d="m 1784.3012,912.98229 c -43.526,-11.33848 -103.9443,-59.39802 -133.7963,-106.42784 -40.4167,-63.67381 -41.1824,-155.31809 -1.8656,-223.2953 64.4622,-111.45263 202.2461,-148.99406 322.7923,-87.94994 78.1907,39.59543 130.3531,143.76841 115.2022,230.06898 -12.518,71.30258 -66.667,144.02406 -129.9853,174.56875 -27.9547,13.48529 -35.5383,14.76578 -93.7772,15.83428 -34.8497,0.63938 -70.2062,-0.62013 -78.5701,-2.79893 z"
     id="path7" />
  <path
     style="fill:#000000;fill-opacity:0;stroke-width:5.06904"
     d="m 2393.1825,912.05926 c -58.0151,-14.21452 -115.7973,-63.60582 -145.8659,-124.68377 -15.8564,-32.20901 -16.5178,-35.98724 -16.6145,-94.91233 -0.099,-60.44982 0.1632,-61.86095 17.5285,-94.31596 23.8247,-44.52712 69.6545,-89.38453 113.9409,-111.5232 34.8728,-17.43288 36.5733,-17.73803 98.8462,-17.73803 61.7873,0 64.2453,0.43 98.8462,17.29214 42.9448,20.92835 95.8326,71.49385 117.1433,111.99936 13.9767,26.56574 14.6517,30.8844 14.6517,93.74615 0,62.17011 -0.8162,67.55978 -14.4307,95.28569 -22.1531,45.11484 -63.2879,86.2509 -108.7268,108.73007 -37.157,18.38202 -40.4215,19.05417 -97.045,19.98174 -32.227,0.52791 -67.4503,-1.20992 -78.2739,-3.86186 z"
     id="path8" />
  <path
     style="fill:#000000;fill-opacity:0;stroke-width:5.06904"
     d="M 1193.7583,917.26411 C 1129.2975,903.92687 1067.3698,856.4664 1038.6783,798.4131 979.30001,678.26925 1022.4138,549.65578 1141.9246,490.41748 l 43.4389,-21.53151 h 61.4626 c 60.6144,0 61.9848,0.25789 99.2996,18.68801 46.2319,22.83431 90.7243,65.33234 113.0086,107.9429 15.512,29.66095 15.9556,32.3415 15.9556,96.40674 0,62.97142 -0.6718,67.24797 -15.1294,96.31171 -18.6595,37.51075 -72.5208,92.83511 -105.0674,107.9215 -43.2204,20.03408 -118.5993,29.90806 -161.1348,21.10728 z"
     id="path9" />
  <path
     style="fill:#000000;fill-opacity:0;stroke-width:5.06904"
     d="m 1784.3012,912.98229 c -43.526,-11.33848 -103.9443,-59.39802 -133.7963,-106.42784 -40.4167,-63.67381 -41.1824,-155.31809 -1.8656,-223.2953 64.4622,-111.45263 202.2461,-148.99406 322.7923,-87.94994 78.1907,39.59543 130.3531,143.76841 115.2022,230.06898 -12.518,71.30258 -66.667,144.02406 -129.9853,174.56875 -27.9547,13.48529 -35.5383,14.76578 -93.7772,15.83428 -34.8497,0.63938 -70.2062,-0.62013 -78.5701,-2.79893 z"
     id="path10" />
  <path
     style="fill:#000000;fill-opacity:0;stroke-width:5.06904"
     d="m 2393.1825,912.05926 c -58.0151,-14.21452 -115.7973,-63.60582 -145.8659,-124.68377 -15.8564,-32.20901 -16.5178,-35.98724 -16.6145,-94.91233 -0.099,-60.44982 0.1632,-61.86095 17.5285,-94.31596 23.8247,-44.52712 69.6545,-89.38453 113.9409,-111.5232 34.8728,-17.43288 36.5733,-17.73803 98.8462,-17.73803 61.7873,0 64.2453,0.43 98.8462,17.29214 42.9448,20.92835 95.8326,71.49385 117.1433,111.99936 13.9767,26.56574 14.6517,30.8844 14.6517,93.74615 0,62.17011 -0.8162,67.55978 -14.4307,95.28569 -22.1531,45.11484 -63.2879,86.2509 -108.7268,108.73007 -37.157,18.38202 -40.4215,19.05417 -97.045,19.98174 -32.227,0.52791 -67.4503,-1.20992 -78.2739,-3.86186 z"
     id="path11" />
  <path
     style="fill:#000000;fill-opacity:0;stroke-width:5.06904"
     d="m 2393.1825,912.05926 c -58.0151,-14.21452 -115.7973,-63.60582 -145.8659,-124.68377 -15.8564,-32.20901 -16.5178,-35.98724 -16.6145,-94.91233 -0.099,-60.44982 0.1632,-61.86095 17.5285,-94.31596 23.8247,-44.52712 69.6545,-89.38453 113.9409,-111.5232 34.8728,-17.43288 36.5733,-17.73803 98.8462,-17.73803 61.7873,0 64.2453,0.43 98.8462,17.29214 42.9448,20.92835 95.8326,71.49385 117.1433,111.99936 13.9767,26.56574 14.6517,30.8844 14.6517,93.74615 0,62.17011 -0.8162,67.55978 -14.4307,95.28569 -22.1531,45.11484 -63.2879,86.2509 -108.7268,108.73007 -37.157,18.38202 -40.4215,19.05417 -97.045,19.98174 -32.227,0.52791 -67.4503,-1.20992 -78.2739,-3.86186 z"
     id="path12" />
  <path
     style="fill:#000000;fill-opacity:0;stroke-width:5.06904"
     d="m 1784.3012,912.98229 c -43.526,-11.33848 -103.9443,-59.39802 -133.7963,-106.42784 -40.4167,-63.67381 -41.1824,-155.31809 -1.8656,-223.2953 64.4622,-111.45263 202.2461,-148.99406 322.7923,-87.94994 78.1907,39.59543 130.3531,143.76841 115.2022,230.06898 -12.518,71.30258 -66.667,144.02406 -129.9853,174.56875 -27.9547,13.48529 -35.5383,14.76578 -93.7772,15.83428 -34.8497,0.63938 -70.2062,-0.62013 -78.5701,-2.79893 z"
     id="path13" />
  <path
     style="fill:#ffffff;fill-opacity:1;stroke-width:5.06904"
     d="M 1193.7583,917.26411 C 1129.2975,903.92687 1067.3698,856.4664 1038.6783,798.4131 979.30001,678.26925 1022.4138,549.65578 1141.9246,490.41748 l 43.4389,-21.53151 h 61.4626 c 60.6144,0 61.9848,0.25789 99.2996,18.68801 46.2319,22.83431 90.7243,65.33234 113.0086,107.9429 15.512,29.66095 15.9556,32.3415 15.9556,96.40674 0,62.97142 -0.6718,67.24797 -15.1294,96.31171 -18.6595,37.51075 -72.5208,92.83511 -105.0674,107.9215 -43.2204,20.03408 -118.5993,29.90806 -161.1348,21.10728 z"
     id="path14" />
  <path
     style="fill:#ffffff;fill-opacity:1;stroke-width:5.06904"
     d="M 1193.7583,917.27199 C 1129.6835,903.99248 1067.3457,856.42132 1039.0919,799.24331 979.30238,678.2451 1022.0104,549.84398 1141.7868,490.49244 l 43.6036,-21.60647 h 61.4736 c 60.6313,0 61.9915,0.256 99.2861,18.68801 46.2079,22.83719 90.7121,65.35561 112.9842,107.9429 15.6002,29.8297 15.9556,32.03346 15.9556,98.94125 0,66.53463 -0.4216,69.1958 -15.2071,95.97912 -31.4635,56.99491 -85.204,103.26763 -137.773,118.62798 -34.2522,10.0083 -99.5222,14.18164 -128.3515,8.20676 z"
     id="path15" />
  <path
     style="fill:#ffffff;fill-opacity:1;stroke-width:5.06904"
     d="m 1784.3012,912.98229 c -43.526,-11.33848 -103.9443,-59.39802 -133.7963,-106.42784 -40.4167,-63.67381 -41.1824,-155.31809 -1.8656,-223.2953 64.4622,-111.45263 202.2461,-148.99406 322.7923,-87.94994 78.1907,39.59543 130.3531,143.76841 115.2022,230.06898 -12.518,71.30258 -66.667,144.02406 -129.9853,174.56875 -27.9547,13.48529 -35.5383,14.76578 -93.7772,15.83428 -34.8497,0.63938 -70.2062,-0.62013 -78.5701,-2.79893 z"
     id="path16" />
  <path
     style="fill:#ffffff;fill-opacity:1;stroke-width:5.06904"
     d="m 2393.1825,912.05926 c -58.0151,-14.21452 -115.7973,-63.60582 -145.8659,-124.68377 -15.8564,-32.20901 -16.5178,-35.98724 -16.6145,-94.91233 -0.099,-60.44982 0.1632,-61.86095 17.5285,-94.31596 23.8247,-44.52712 69.6545,-89.38453 113.9409,-111.5232 34.8728,-17.43288 36.5733,-17.73803 98.8462,-17.73803 61.7873,0 64.2453,0.43 98.8462,17.29214 42.9448,20.92835 95.8326,71.49385 117.1433,111.99936 13.9767,26.56574 14.6517,30.8844 14.6517,93.74615 0,62.17011 -0.8162,67.55978 -14.4307,95.28569 -22.1531,45.11484 -63.2879,86.2509 -108.7268,108.73007 -37.157,18.38202 -40.4215,19.05417 -97.045,19.98174 -32.227,0.52791 -67.4503,-1.20992 -78.2739,-3.86186 z"
     id="path17" />
</svg>
