<?xml version="1.0" encoding="UTF-8" standalone="no"?>
<!-- Created with Inkscape (http://www.inkscape.org/) -->

<svg
   width="3500"
   height="3500"
   viewBox="0 0 926.04165 926.04166"
   version="1.1"
   id="svg1"
   inkscape:export-filename="PATH2.png"
   inkscape:export-xdpi="96"
   inkscape:export-ydpi="96"
   inkscape:version="1.3.2 (091e20e, 2023-11-25)"
   sodipodi:docname="drawing.svg.svg"
   xmlns:inkscape="http://www.inkscape.org/namespaces/inkscape"
   xmlns:sodipodi="http://sodipodi.sourceforge.net/DTD/sodipodi-0.dtd"
   xmlns="http://www.w3.org/2000/svg"
   xmlns:svg="http://www.w3.org/2000/svg">
  <sodipodi:namedview
     id="namedview1"
     pagecolor="#ffffff"
     bordercolor="#000000"
     borderopacity="0.25"
     inkscape:showpageshadow="2"
     inkscape:pageopacity="0.0"
     inkscape:pagecheckerboard="0"
     inkscape:deskcolor="#d1d1d1"
     inkscape:document-units="px"
     inkscape:zoom="0.23668159"
     inkscape:cx="1647.7834"
     inkscape:cy="1041.4836"
     inkscape:window-width="1512"
     inkscape:window-height="980"
     inkscape:window-x="218"
     inkscape:window-y="38"
     inkscape:window-maximized="0"
     inkscape:current-layer="layer1" />
  <defs
     id="defs1" />
  <g
     inkscape:label="Layer 1"
     inkscape:groupmode="layer"
     id="layer1">
    <path
       style="fill:#76ccab;fill-opacity:1;stroke-width:1.00439"
       d="m 911.43051,348.18619 c 0,-0.92008 -4.37335,-13.7513 -9.71854,-28.51381 l -9.71849,-26.84099 -0.78799,-91.53682 C 890.4235,110.45262 889.55106,76.10147 887.68906,62.837711 886.6143,55.181795 881.07107,38.70377 877.51332,32.589179 c -2.93274,-5.040505 -9.82188,-9.18225 -18.62369,-11.196556 -18.4696,-4.226847 -64.36964,-4.784926 -513.0786,-6.238109 L 55.203752,14.213339 48.247534,19.129642 C 31.084329,31.259686 20.730902,46.23545 17.541476,63.544549 15.23801,76.045391 14.195588,188.40756 15.782333,253.1575 c 0.844152,34.44552 1.698414,42.60685 5.472606,52.28483 2.950946,7.56685 10.949265,19.66634 16.036699,24.25958 8.283256,7.47859 7.925472,7.43617 72.348992,8.57569 91.41349,1.61688 429.62115,3.50265 608.79892,3.3945 l 162.72651,-0.0983 11.84258,3.36839 c 17.90252,5.09202 18.42187,5.18348 18.42187,3.24391 z"
       id="path3" />
  </g>
</svg>
